<?xml version="1.0" standalone="no"?>
<!DOCTYPE svg PUBLIC "-//W3C//DTD SVG 20010904//EN"
 "http://www.w3.org/TR/2001/REC-SVG-20010904/DTD/svg10.dtd">
<svg version="1.0" xmlns="http://www.w3.org/2000/svg"
 width="204.000000pt" height="192.000000pt" viewBox="0 0 204.000000 192.000000"
 preserveAspectRatio="xMidYMid meet">

<g transform="translate(0.000000,192.000000) scale(0.100000,-0.100000)"
fill="#000000" stroke="none">
<path d="M0 960 l0 -960 348 0 347 1 -66 28 c-584 249 -798 954 -448 1475 115
171 323 330 514 392 l70 23 -382 1 -383 0 0 -960z"/>
<path d="M1295 1910 c11 -5 28 -9 38 -9 30 -1 148 -60 236 -119 203 -134 358
-349 414 -574 22 -85 40 -289 32 -353 -22 -171 -88 -341 -184 -475 -107 -150
-232 -254 -405 -336 l-91 -44 353 0 352 0 0 960 0 960 -382 -1 c-223 0 -375
-4 -363 -9z"/>
<path d="M1026 1752 c-7 -11 4 -52 14 -52 5 0 15 3 24 6 20 8 21 34 1 34 -8 0
-15 5 -15 10 0 12 -17 13 -24 2z"/>
<path d="M936 1661 c-16 -3 -31 -11 -33 -18 -6 -16 44 -66 59 -61 22 8 49 54
42 71 -6 18 -19 19 -68 8z"/>
<path d="M1482 1640 c-39 -24 -111 -98 -185 -190 -72 -90 -169 -181 -220 -207
-23 -12 -80 -38 -127 -58 -47 -19 -101 -48 -120 -64 -34 -27 -39 -28 -89 -20
-94 15 -163 39 -192 69 -17 17 -29 23 -29 15 0 -35 158 -105 237 -105 21 0 23
-3 17 -39 -12 -73 58 -151 134 -151 53 0 90 32 133 114 l33 63 76 11 c42 6 98
18 124 27 26 9 49 15 51 13 2 -2 -12 -36 -31 -77 -43 -88 -120 -168 -201 -207
-53 -26 -68 -29 -163 -29 -98 0 -109 2 -171 32 -37 18 -91 54 -120 80 -61 56
-51 28 13 -34 167 -162 452 -147 610 31 64 72 119 221 104 280 -5 22 -60 58
-106 70 -18 5 -15 1 11 -13 73 -40 75 -77 6 -110 -41 -20 -178 -53 -186 -46
-2 3 9 30 24 62 28 61 126 180 156 191 33 13 230 184 255 222 27 41 29 83 4
88 -8 1 -30 -7 -48 -18z m-382 -451 c0 -3 -16 -27 -35 -53 -23 -30 -44 -46
-58 -46 -18 0 -13 9 33 55 72 73 56 70 -24 -4 -48 -45 -69 -58 -85 -54 -12 3
-21 8 -21 12 1 3 28 23 62 44 33 21 58 40 55 43 -6 6 -122 -70 -132 -86 -3 -5
-23 -10 -43 -10 -31 0 -34 2 -22 14 34 33 219 119 205 96 -9 -15 7 -12 29 5
16 12 22 12 28 2 4 -6 8 -15 8 -18z m-20 -78 c-6 -12 -16 -19 -21 -15 -6 4 -4
13 7 25 21 24 29 18 14 -10z m-240 -48 c0 -3 -8 -17 -19 -31 -10 -15 -20 -34
-23 -42 -4 -10 -8 -6 -13 13 -11 40 8 77 34 70 12 -3 21 -7 21 -10z m90 -2 c0
-8 -103 -111 -112 -111 -19 0 -5 52 22 84 23 26 39 34 60 34 17 -1 30 -4 30
-7z m103 0 c23 13 22 -2 -4 -54 -35 -70 -77 -107 -121 -107 -21 0 -38 5 -38
10 0 6 7 10 16 10 18 0 124 105 124 123 0 6 -20 -11 -44 -38 -51 -58 -94 -85
-119 -76 -15 6 -7 18 52 74 61 59 72 66 93 58 15 -5 31 -5 41 0z"/>
<path d="M988 1475 c-9 -21 -7 -30 17 -65 15 -22 29 -40 32 -40 2 0 19 10 38
23 57 36 60 95 5 83 -18 -3 -33 0 -40 9 -18 22 -39 18 -52 -10z"/>
<path d="M480 760 c0 -5 5 -10 10 -10 16 0 13 -207 -2 -213 -7 -3 19 -6 57 -6
84 -1 115 15 115 59 0 16 -9 38 -20 48 -18 17 -19 20 -5 32 8 7 15 26 15 42 0
24 -6 32 -35 44 -39 16 -135 19 -135 4z m118 -22 c29 -29 7 -78 -35 -78 -20 0
-23 5 -23 38 0 21 3 42 7 45 10 11 38 8 51 -5z m20 -121 c7 -34 -7 -64 -31
-69 -39 -7 -47 1 -47 48 l0 45 37 -3 c27 -2 39 -8 41 -21z"/>
<path d="M1163 752 c21 -23 25 -190 5 -210 -9 -9 -3 -12 27 -12 30 0 36 3 27
12 -16 16 -16 61 0 56 6 -2 19 -19 27 -36 13 -26 22 -32 51 -31 26 0 31 2 19
9 -25 15 -72 88 -64 100 4 6 21 20 39 31 l31 19 -37 0 c-21 0 -37 -3 -36 -7 3
-12 -22 -53 -32 -53 -6 0 -10 32 -10 70 l0 70 -32 0 c-29 0 -30 -1 -15 -18z"/>
<path d="M720 670 c-29 -29 -27 -84 5 -115 18 -18 35 -25 65 -25 22 0 40 5 40
10 0 6 -13 10 -28 10 -33 0 -65 30 -60 57 3 14 13 18 48 18 39 0 45 2 42 20
-2 11 -9 26 -14 33 -16 19 -75 15 -98 -8z m68 -2 c19 -19 14 -28 -18 -28 -16
0 -30 4 -30 8 0 9 21 32 30 32 3 0 11 -5 18 -12z"/>
<path d="M860 681 c0 -6 5 -13 10 -16 14 -9 12 -109 -2 -123 -9 -9 -3 -12 27
-12 30 0 36 3 27 12 -14 14 -16 57 -2 92 7 19 16 25 32 23 14 -1 23 4 26 16 4
20 -27 24 -47 5 -11 -10 -14 -10 -18 0 -5 14 -53 17 -53 3z"/>
<path d="M1017 672 c-26 -28 -22 -94 6 -120 24 -23 90 -31 102 -12 3 5 -2 9
-12 8 -40 -3 -53 3 -68 33 -20 37 -15 44 33 45 52 2 52 2 52 18 0 43 -82 63
-113 28z m71 -4 c19 -19 14 -28 -18 -28 -41 0 -40 33 1 39 3 1 10 -4 17 -11z"/>
<path d="M1360 663 c-27 -34 -22 -89 11 -115 23 -19 99 -25 99 -8 0 6 -13 10
-30 10 -20 0 -35 8 -46 25 -25 38 -12 56 36 52 49 -4 57 5 36 38 -24 36 -77
35 -106 -2z m64 11 c28 -11 18 -34 -14 -34 -32 0 -37 9 -18 28 14 14 12 14 32
6z"/>
<path d="M499 374 c-7 -9 -14 -34 -14 -55 l-1 -39 42 0 c45 0 74 22 74 57 0
45 -72 71 -101 37z m75 -10 c32 -31 10 -74 -38 -74 -28 0 -35 4 -40 26 -13 49
43 83 78 48z"/>
<path d="M510 354 c0 -19 24 -44 43 -43 l22 0 -22 9 c-13 5 -23 16 -23 25 0 8
-4 15 -10 15 -5 0 -10 -3 -10 -6z"/>
<path d="M722 358 c0 -7 -3 -24 -7 -38 l-6 -25 15 25 c17 28 20 50 8 50 -5 0
-9 -6 -10 -12z"/>
<path d="M823 358 c0 -7 -3 -24 -7 -38 l-7 -25 15 25 c17 28 20 50 8 50 -5 0
-9 -6 -9 -12z"/>
<path d="M855 351 c-6 -19 2 -51 14 -51 3 0 6 16 6 35 0 38 -10 46 -20 16z"/>
<path d="M894 335 c0 -19 4 -31 8 -29 4 3 8 16 8 29 0 13 -4 26 -8 29 -4 2 -8
-10 -8 -29z"/>
<path d="M933 335 c-6 -19 -8 -35 -3 -35 4 0 10 8 13 18 2 9 8 25 12 35 4 9 3
17 -2 17 -5 0 -14 -16 -20 -35z"/>
<path d="M1018 352 c-3 -9 -1 -26 3 -37 6 -15 8 -11 8 18 1 40 -4 48 -11 19z"/>
<path d="M1080 355 c0 -8 4 -15 8 -15 5 0 9 7 9 15 0 8 -4 15 -9 15 -4 0 -8
-7 -8 -15z"/>
<path d="M1144 359 c-3 -6 -1 -16 5 -22 8 -8 11 -5 11 11 0 24 -5 28 -16 11z"/>
<path d="M1175 335 c0 -18 3 -31 8 -28 4 2 7 15 7 28 0 13 -3 26 -7 28 -5 3
-8 -10 -8 -28z"/>
<path d="M1244 359 c-3 -6 -1 -16 5 -22 8 -8 11 -5 11 11 0 24 -5 28 -16 11z"/>
<path d="M1275 336 c0 -19 3 -32 8 -29 4 2 7 17 7 34 0 16 -3 29 -7 29 -5 0
-8 -15 -8 -34z"/>
<path d="M1310 341 c0 -17 3 -32 8 -34 4 -3 7 10 7 29 0 19 -3 34 -7 34 -5 0
-8 -13 -8 -29z"/>
<path d="M1344 335 c0 -19 3 -32 8 -29 10 6 11 51 1 57 -5 3 -8 -10 -9 -28z"/>
<path d="M1380 335 c0 -19 4 -35 8 -35 4 0 6 16 4 35 -2 19 -6 35 -8 35 -2 0
-4 -16 -4 -35z"/>
<path d="M1440 350 c0 -11 4 -20 8 -20 4 0 8 9 8 20 0 11 -4 20 -8 20 -4 0 -8
-9 -8 -20z"/>
<path d="M1475 348 c1 -13 -2 -29 -8 -35 -6 -9 -6 -13 2 -13 14 0 26 49 14 61
-6 6 -9 1 -8 -13z"/>
<path d="M646 341 c-4 -6 -3 -18 2 -27 8 -14 10 -14 15 -2 7 19 -8 44 -17 29z"/>
<path d="M1047 320 c-3 -11 -1 -20 4 -20 5 0 9 9 9 20 0 11 -2 20 -4 20 -2 0
-6 -9 -9 -20z"/>
<path d="M1116 332 c2 -3 -1 -11 -7 -19 -8 -9 -8 -13 -1 -13 16 0 26 20 15 30
-6 4 -8 5 -7 2z"/>
<path d="M1412 320 c0 -14 2 -19 5 -12 2 6 2 18 0 25 -3 6 -5 1 -5 -13z"/>
</g>
</svg>
